<svg xmlns="http://www.w3.org/2000/svg" xmlns:xlink="http://www.w3.org/1999/xlink" width="2000" zoomAndPan="magnify" viewBox="0 0 1500 749.999995" height="1000" preserveAspectRatio="xMidYMid meet" version="1.0"><defs><g/><clipPath id="0ebf3fc23d"><path d="M 506 125 L 591 125 L 591 178 L 506 178 Z M 506 125 " clip-rule="nonzero"/></clipPath><clipPath id="d794fce71b"><path d="M 530.75 95.796875 L 624.648438 148.445312 L 518.214844 338.261719 L 424.316406 285.609375 Z M 530.75 95.796875 " clip-rule="nonzero"/></clipPath><clipPath id="1fd9d75a04"><path d="M 530.75 95.796875 L 624.648438 148.445312 L 518.214844 338.261719 L 424.316406 285.609375 Z M 530.75 95.796875 " clip-rule="nonzero"/></clipPath><clipPath id="49cec1ac4a"><path d="M 530.75 95.796875 L 624.648438 148.445312 L 518.214844 338.261719 L 424.316406 285.609375 Z M 530.75 95.796875 " clip-rule="nonzero"/></clipPath><clipPath id="6116272123"><path d="M 554 133 L 569 133 L 569 147 L 554 147 Z M 554 133 " clip-rule="nonzero"/></clipPath><clipPath id="6c27c8f0dd"><path d="M 530.75 95.796875 L 624.648438 148.445312 L 518.214844 338.261719 L 424.316406 285.609375 Z M 530.75 95.796875 " clip-rule="nonzero"/></clipPath><clipPath id="8b65b0b7cd"><path d="M 530.75 95.796875 L 624.648438 148.445312 L 518.214844 338.261719 L 424.316406 285.609375 Z M 530.75 95.796875 " clip-rule="nonzero"/></clipPath><clipPath id="40e9679db5"><path d="M 530.75 95.796875 L 624.648438 148.445312 L 518.214844 338.261719 L 424.316406 285.609375 Z M 530.75 95.796875 " clip-rule="nonzero"/></clipPath><clipPath id="0ad2b2fa5c"><path d="M 474 157 L 525 157 L 525 338 L 474 338 Z M 474 157 " clip-rule="nonzero"/></clipPath><clipPath id="e3e5dd42ee"><path d="M 530.75 95.796875 L 624.648438 148.445312 L 518.214844 338.261719 L 424.316406 285.609375 Z M 530.75 95.796875 " clip-rule="nonzero"/></clipPath><clipPath id="97715af6d6"><path d="M 530.75 95.796875 L 624.648438 148.445312 L 518.214844 338.261719 L 424.316406 285.609375 Z M 530.75 95.796875 " clip-rule="nonzero"/></clipPath><clipPath id="fcfc31de5e"><path d="M 530.75 95.796875 L 624.648438 148.445312 L 518.214844 338.261719 L 424.316406 285.609375 Z M 530.75 95.796875 " clip-rule="nonzero"/></clipPath><clipPath id="ffa1186818"><path d="M 464 170 L 496 170 L 496 247 L 464 247 Z M 464 170 " clip-rule="nonzero"/></clipPath><clipPath id="b91787db71"><path d="M 530.75 95.796875 L 624.648438 148.445312 L 518.214844 338.261719 L 424.316406 285.609375 Z M 530.75 95.796875 " clip-rule="nonzero"/></clipPath><clipPath id="261b45f880"><path d="M 530.75 95.796875 L 624.648438 148.445312 L 518.214844 338.261719 L 424.316406 285.609375 Z M 530.75 95.796875 " clip-rule="nonzero"/></clipPath><clipPath id="30913fd416"><path d="M 530.75 95.796875 L 624.648438 148.445312 L 518.214844 338.261719 L 424.316406 285.609375 Z M 530.75 95.796875 " clip-rule="nonzero"/></clipPath><clipPath id="bb2b435cf3"><path d="M 488 189 L 509 189 L 509 244 L 488 244 Z M 488 189 " clip-rule="nonzero"/></clipPath><clipPath id="a939ea201e"><path d="M 530.75 95.796875 L 624.648438 148.445312 L 518.214844 338.261719 L 424.316406 285.609375 Z M 530.75 95.796875 " clip-rule="nonzero"/></clipPath><clipPath id="924795b2cd"><path d="M 530.75 95.796875 L 624.648438 148.445312 L 518.214844 338.261719 L 424.316406 285.609375 Z M 530.75 95.796875 " clip-rule="nonzero"/></clipPath><clipPath id="a1d0b4b877"><path d="M 530.75 95.796875 L 624.648438 148.445312 L 518.214844 338.261719 L 424.316406 285.609375 Z M 530.75 95.796875 " clip-rule="nonzero"/></clipPath><clipPath id="4e3ab9a8a4"><path d="M 464 271 L 482 271 L 482 316 L 464 316 Z M 464 271 " clip-rule="nonzero"/></clipPath><clipPath id="1e35d7551f"><path d="M 530.75 95.796875 L 624.648438 148.445312 L 518.214844 338.261719 L 424.316406 285.609375 Z M 530.75 95.796875 " clip-rule="nonzero"/></clipPath><clipPath id="4b237f0ef8"><path d="M 530.75 95.796875 L 624.648438 148.445312 L 518.214844 338.261719 L 424.316406 285.609375 Z M 530.75 95.796875 " clip-rule="nonzero"/></clipPath><clipPath id="1d0d3358af"><path d="M 530.75 95.796875 L 624.648438 148.445312 L 518.214844 338.261719 L 424.316406 285.609375 Z M 530.75 95.796875 " clip-rule="nonzero"/></clipPath><clipPath id="1786719373"><path d="M 485 274 L 495 274 L 495 295 L 485 295 Z M 485 274 " clip-rule="nonzero"/></clipPath><clipPath id="2de38c9b6b"><path d="M 530.75 95.796875 L 624.648438 148.445312 L 518.214844 338.261719 L 424.316406 285.609375 Z M 530.75 95.796875 " clip-rule="nonzero"/></clipPath><clipPath id="f6b694bd43"><path d="M 530.75 95.796875 L 624.648438 148.445312 L 518.214844 338.261719 L 424.316406 285.609375 Z M 530.75 95.796875 " clip-rule="nonzero"/></clipPath><clipPath id="f72db98729"><path d="M 530.75 95.796875 L 624.648438 148.445312 L 518.214844 338.261719 L 424.316406 285.609375 Z M 530.75 95.796875 " clip-rule="nonzero"/></clipPath></defs><rect x="-150" width="1800" fill="#ffffff" y="-74.999999" height="899.999994" fill-opacity="1"/><rect x="-150" width="1800" fill="#ffffff" y="-74.999999" height="899.999994" fill-opacity="1"/><rect x="-150" width="1800" fill="#ffffff" y="-74.999999" height="899.999994" fill-opacity="1"/><g fill="#000000" fill-opacity="1"><g transform="translate(75.018088, 514.33963)"><g><path d="M 218.203125 -288.234375 L 218.203125 -241.828125 L 83.453125 -241.828125 L 83.453125 -166.09375 L 210.46875 -166.09375 L 210.46875 -119.6875 L 83.453125 -119.6875 L 83.453125 0 L 32.15625 0 L 32.15625 -288.234375 Z M 218.203125 -288.234375 "/></g></g></g><g fill="#cb6ce6" fill-opacity="1"><g transform="translate(308.695572, 514.33963)"><g><path d="M 110.328125 -200.296875 C 138.285156 -200.296875 159.179688 -193.578125 173.015625 -180.140625 C 186.859375 -166.710938 193.78125 -145.613281 193.78125 -116.84375 L 193.78125 0 L 149.8125 0 L 149.8125 -26.875 L 148.59375 -26.875 C 135.289062 -5.695312 114.394531 4.890625 85.90625 4.890625 C 64.726562 4.890625 47.554688 -0.601562 34.390625 -11.59375 C 21.234375 -22.59375 14.65625 -36.640625 14.65625 -53.734375 C 14.65625 -76.535156 24.15625 -93.566406 43.15625 -104.828125 C 62.15625 -116.085938 92.6875 -121.71875 134.75 -121.71875 L 149.8125 -121.71875 L 149.8125 -127.421875 C 149.8125 -138.828125 145.738281 -147.71875 137.59375 -154.09375 C 129.457031 -160.46875 118.601562 -163.65625 105.03125 -163.65625 C 84.945312 -163.65625 67.578125 -156.867188 52.921875 -143.296875 L 27.28125 -168.953125 C 47.632812 -189.847656 75.316406 -200.296875 110.328125 -200.296875 Z M 63.515625 -57.40625 C 63.515625 -48.988281 66.972656 -42.609375 73.890625 -38.265625 C 80.804688 -33.921875 88.878906 -31.75 98.109375 -31.75 C 114.941406 -31.75 127.289062 -35.890625 135.15625 -44.171875 C 143.03125 -52.453125 146.96875 -62.832031 146.96875 -75.3125 L 146.96875 -87.53125 L 132.71875 -87.53125 C 86.582031 -87.53125 63.515625 -77.488281 63.515625 -57.40625 Z M 63.515625 -57.40625 "/></g></g></g><g fill="#cb6ce6" fill-opacity="1"><g transform="translate(527.310678, 514.33963)"><g><path d="M 52.515625 -291.078125 C 61.472656 -291.078125 69.003906 -288.296875 75.109375 -282.734375 C 81.210938 -277.171875 84.265625 -270.179688 84.265625 -261.765625 C 84.265625 -253.085938 81.144531 -246.03125 74.90625 -240.59375 C 68.664062 -235.164062 61.203125 -232.453125 52.515625 -232.453125 C 43.828125 -232.453125 36.5 -235.367188 30.53125 -241.203125 C 24.5625 -247.046875 21.578125 -253.898438 21.578125 -261.765625 C 21.578125 -269.640625 24.5625 -276.492188 30.53125 -282.328125 C 36.5 -288.160156 43.828125 -291.078125 52.515625 -291.078125 Z M 77.34375 -195.40625 L 77.34375 0 L 28.5 0 L 28.5 -195.40625 Z M 77.34375 -195.40625 "/></g></g></g><g fill="#000000" fill-opacity="1"><g transform="translate(633.149148, 514.33963)"><g><path d="M 77.34375 -307.78125 L 77.34375 0 L 28.5 0 L 28.5 -307.78125 Z M 77.34375 -307.78125 "/></g></g></g><g fill="#000000" fill-opacity="1"><g transform="translate(738.996316, 514.33963)"><g><path d="M 124.171875 -200.296875 C 153.484375 -200.296875 176.078125 -190.523438 191.953125 -170.984375 C 207.828125 -151.441406 215.765625 -125.929688 215.765625 -94.453125 L 215.765625 -80.609375 L 66.765625 -80.609375 C 68.390625 -66.492188 74.019531 -55.226562 83.65625 -46.8125 C 93.289062 -38.40625 105.164062 -34.203125 119.28125 -34.203125 C 139.90625 -34.203125 157.410156 -43.019531 171.796875 -60.65625 L 206.8125 -34.203125 C 185.644531 -8.140625 158.097656 4.890625 124.171875 4.890625 C 94.316406 4.890625 69.140625 -4.609375 48.640625 -23.609375 C 28.148438 -42.609375 17.90625 -67.304688 17.90625 -97.703125 C 17.90625 -128.097656 28.148438 -152.796875 48.640625 -171.796875 C 69.140625 -190.796875 94.316406 -200.296875 124.171875 -200.296875 Z M 166.921875 -117.25 C 166.640625 -132.71875 161.882812 -144.316406 152.65625 -152.046875 C 143.4375 -159.785156 131.5 -163.65625 116.84375 -163.65625 C 102.1875 -163.65625 90.648438 -159.378906 82.234375 -150.828125 C 73.816406 -142.285156 68.660156 -131.09375 66.765625 -117.25 Z M 166.921875 -117.25 "/></g></g></g><g fill="#000000" fill-opacity="1"><g transform="translate(972.674292, 514.33963)"><g><path d="M 110.328125 -200.296875 C 138.285156 -200.296875 159.179688 -193.578125 173.015625 -180.140625 C 186.859375 -166.710938 193.78125 -145.613281 193.78125 -116.84375 L 193.78125 0 L 149.8125 0 L 149.8125 -26.875 L 148.59375 -26.875 C 135.289062 -5.695312 114.394531 4.890625 85.90625 4.890625 C 64.726562 4.890625 47.554688 -0.601562 34.390625 -11.59375 C 21.234375 -22.59375 14.65625 -36.640625 14.65625 -53.734375 C 14.65625 -76.535156 24.15625 -93.566406 43.15625 -104.828125 C 62.15625 -116.085938 92.6875 -121.71875 134.75 -121.71875 L 149.8125 -121.71875 L 149.8125 -127.421875 C 149.8125 -138.828125 145.738281 -147.71875 137.59375 -154.09375 C 129.457031 -160.46875 118.601562 -163.65625 105.03125 -163.65625 C 84.945312 -163.65625 67.578125 -156.867188 52.921875 -143.296875 L 27.28125 -168.953125 C 47.632812 -189.847656 75.316406 -200.296875 110.328125 -200.296875 Z M 63.515625 -57.40625 C 63.515625 -48.988281 66.972656 -42.609375 73.890625 -38.265625 C 80.804688 -33.921875 88.878906 -31.75 98.109375 -31.75 C 114.941406 -31.75 127.289062 -35.890625 135.15625 -44.171875 C 143.03125 -52.453125 146.96875 -62.832031 146.96875 -75.3125 L 146.96875 -87.53125 L 132.71875 -87.53125 C 86.582031 -87.53125 63.515625 -77.488281 63.515625 -57.40625 Z M 63.515625 -57.40625 "/></g></g></g><g fill="#000000" fill-opacity="1"><g transform="translate(1191.289397, 514.33963)"><g><path d="M 134.75 -200.296875 C 157.007812 -200.296875 174.445312 -193.644531 187.0625 -180.34375 C 199.6875 -167.050781 206 -148.597656 206 -124.984375 L 206 0 L 157.140625 0 L 157.140625 -101.375 C 157.140625 -138.007812 145.195312 -156.328125 121.3125 -156.328125 C 107.476562 -156.328125 96.554688 -151.847656 88.546875 -142.890625 C 80.535156 -133.929688 76.53125 -122.128906 76.53125 -107.484375 L 76.53125 0 L 27.6875 0 L 27.6875 -195.40625 L 74.09375 -195.40625 L 74.09375 -164.0625 L 74.90625 -164.0625 C 86.03125 -188.21875 105.976562 -200.296875 134.75 -200.296875 Z M 134.75 -200.296875 "/></g></g></g><g clip-path="url(#0ebf3fc23d)"><g clip-path="url(#d794fce71b)"><g clip-path="url(#1fd9d75a04)"><g clip-path="url(#49cec1ac4a)"><path fill="#010101" d="M 589.507812 128.820312 C 588.90625 128.628906 588.453125 128.472656 588.335938 128.433594 C 586.71875 127.898438 585.070312 127.441406 583.402344 127.074219 C 581.738281 126.703125 580.054688 126.421875 578.367188 126.199219 C 571.390625 125.300781 564.53125 125.859375 557.90625 127.523438 C 553.160156 128.71875 548.546875 130.484375 544.085938 132.621094 C 543.34375 132.605469 542.363281 132.621094 541.191406 132.617188 C 536.988281 132.59375 530.367188 132.601562 523.75 132.429688 C 520.546875 132.347656 517.347656 132.261719 514.421875 132.117188 C 512.765625 132.035156 510.070312 134.183594 508.425781 136.160156 C 507.539062 137.222656 506.972656 138.230469 506.871094 138.722656 C 506.714844 139.472656 507.050781 139.921875 507.429688 140.160156 C 510.335938 141.960938 513.839844 142.359375 516.898438 143.808594 C 519.542969 145.0625 521.9375 146.898438 523.953125 149.007812 C 530.96875 156.347656 532.078125 166.277344 529.1875 175.722656 C 529.074219 176.09375 529.078125 176.632812 529.785156 176.914062 C 529.949219 176.980469 530.347656 177.046875 530.921875 177.070312 C 532.726562 177.144531 536.78125 176.980469 538.539062 176.867188 C 538.9375 176.84375 539.222656 176.816406 539.363281 176.800781 C 540.078125 176.703125 540.25 176.152344 540.277344 176.082031 C 540.496094 175.445312 543.789062 170.214844 549.820312 164.226562 C 552.765625 161.308594 556.472656 158.390625 560.59375 155.363281 C 560.699219 155.289062 560.804688 155.214844 560.910156 155.136719 C 565.835938 152.859375 570.5 150.039062 574.761719 146.695312 C 579.816406 142.652344 583.828125 138.695312 586.527344 135.613281 C 588.515625 133.34375 589.84375 131.601562 590.394531 130.710938 C 590.433594 130.652344 590.46875 130.597656 590.5 130.542969 C 590.59375 130.59375 589.816406 128.917969 589.507812 128.820312 Z M 519.332031 142.550781 C 515.421875 140.492188 511.371094 139.464844 509.378906 138.617188 C 510.050781 137.574219 511.433594 136.011719 512.765625 135.046875 C 513.339844 134.632812 513.867188 134.289062 514.316406 134.308594 C 521.289062 134.570312 529.816406 134.628906 536.222656 134.46875 C 537.890625 134.425781 539.417969 134.378906 540.730469 134.316406 C 540.132812 134.632812 539.535156 134.953125 538.941406 135.285156 C 537.109375 136.308594 535.289062 137.386719 533.523438 138.539062 C 531.746094 139.699219 530.015625 140.929688 528.367188 142.253906 L 525.1875 144.90625 L 524.167969 145.804688 C 524.164062 145.808594 524.160156 145.816406 524.15625 145.820312 C 524.117188 145.785156 524.082031 145.753906 524.042969 145.71875 C 522.621094 144.425781 520.976562 143.414062 519.332031 142.550781 Z M 530.070312 153.464844 C 528.097656 149.835938 526.238281 148.15625 525.476562 147.511719 C 525.449219 147.445312 525.417969 147.378906 525.386719 147.316406 L 526.503906 146.558594 L 528.769531 144.839844 C 529.84375 145.996094 531.789062 148.4375 533.390625 151.667969 C 534.296875 153.5 535.066406 155.578125 535.605469 157.78125 C 535.734375 158.316406 535.828125 158.863281 535.972656 159.402344 C 535.992188 159.46875 536.011719 159.535156 536.03125 159.601562 C 535.582031 159.652344 535.132812 159.703125 534.683594 159.753906 C 534.09375 159.816406 533.488281 159.792969 532.921875 159.976562 C 532.8125 160.015625 532.730469 160.066406 532.648438 160.125 C 532.453125 159.3125 532.253906 158.550781 532.007812 157.835938 C 531.429688 156.121094 530.734375 154.683594 530.070312 153.464844 Z M 548.234375 162.601562 C 542.691406 167.941406 539.554688 172.96875 538.597656 174.769531 C 538.527344 174.785156 538.449219 174.800781 538.375 174.808594 C 536.757812 174.96875 533.121094 175.234375 531.257812 175.230469 C 531.953125 172.789062 532.515625 169.847656 532.792969 167.148438 C 532.980469 165.335938 533.164062 163.613281 532.925781 162.253906 C 533.21875 162.148438 533.53125 162.007812 533.828125 161.871094 C 534.160156 161.863281 534.496094 161.824219 534.832031 161.8125 C 541.078125 161.570312 547.265625 160.1875 553.210938 158.1875 C 551.378906 159.644531 549.730469 161.15625 548.234375 162.601562 Z M 581.015625 138.21875 C 578.828125 140.289062 576.285156 142.601562 573.351562 144.902344 C 567.578125 149.46875 561.03125 153.042969 554.09375 155.5625 C 548.804688 157.484375 543.277344 158.648438 537.703125 159.390625 C 537.707031 159.304688 537.707031 159.222656 537.703125 159.136719 C 537.679688 158.53125 537.550781 157.9375 537.421875 157.355469 C 536.90625 154.988281 535.960938 152.796875 534.933594 150.867188 C 533.214844 147.640625 531.183594 145.15625 529.914062 143.96875 C 531.476562 142.734375 533.109375 141.585938 534.789062 140.503906 C 536.515625 139.394531 538.292969 138.351562 540.085938 137.363281 C 545.933594 134.117188 552.101562 131.488281 558.484375 129.820312 C 564.835938 128.15625 571.40625 127.441406 578.125 128.179688 C 579.769531 128.355469 581.40625 128.59375 583.03125 128.890625 C 584.65625 129.1875 586.269531 129.546875 587.855469 129.996094 C 587.964844 130.023438 588.3125 130.109375 588.726562 130.210938 C 588.542969 130.414062 588.332031 130.652344 588.09375 130.910156 C 586.625 132.476562 584.265625 135.136719 581.015625 138.21875 Z M 581.015625 138.21875 " fill-opacity="1" fill-rule="evenodd"/></g></g></g></g><g clip-path="url(#6116272123)"><g clip-path="url(#6c27c8f0dd)"><g clip-path="url(#8b65b0b7cd)"><g clip-path="url(#40e9679db5)"><path fill="#010101" d="M 567.398438 136.734375 C 566.074219 134.464844 563.398438 133.433594 560.867188 133.929688 C 557.96875 134.5 555.296875 136.84375 554.714844 139.777344 C 554.351562 141.613281 554.695312 143.539062 555.957031 144.960938 C 556.90625 146.027344 558.246094 146.605469 559.660156 146.757812 C 561.003906 146.898438 562.414062 146.648438 563.589844 146.101562 C 564.667969 145.597656 565.707031 144.8125 566.523438 143.859375 C 568.238281 141.855469 568.761719 139.0625 567.398438 136.734375 Z M 567.398438 136.734375 " fill-opacity="1" fill-rule="evenodd"/></g></g></g></g><g clip-path="url(#0ad2b2fa5c)"><g clip-path="url(#e3e5dd42ee)"><g clip-path="url(#97715af6d6)"><g clip-path="url(#fcfc31de5e)"><path fill="#010101" d="M 523.496094 157.703125 C 523.488281 157.660156 523.488281 157.644531 523.5 157.683594 C 523.503906 157.691406 523.5 157.699219 523.496094 157.703125 Z M 523.496094 157.703125 C 523.496094 157.734375 523.5 157.78125 523.5 157.828125 C 523.566406 157.648438 523.75 157.535156 523.949219 157.554688 C 524.1875 157.574219 524.359375 157.789062 524.335938 158.027344 C 524.449219 158.171875 524.308594 158.21875 524.273438 158.390625 C 524.246094 158.507812 524.089844 158.566406 524.011719 158.640625 C 521.503906 160.402344 519.148438 162.28125 516.847656 164.253906 C 515.328125 165.558594 513.820312 166.890625 512.371094 168.316406 C 508.105469 172.503906 504.324219 177.023438 500.902344 181.804688 C 497.476562 186.589844 494.410156 191.640625 491.644531 196.933594 C 478.648438 221.585938 473.875 247.90625 478.074219 272.332031 C 481.90625 294.582031 493.1875 315.25 512.496094 331.628906 C 514.0625 332.957031 515.714844 334.214844 517.351562 335.527344 C 517.675781 335.789062 518.074219 335.984375 518.308594 336.328125 C 518.398438 336.460938 518.375 336.546875 518.425781 336.699219 C 518.691406 336.894531 518.746094 337.269531 518.550781 337.535156 C 518.355469 337.804688 517.980469 337.859375 517.714844 337.664062 C 517.554688 337.664062 517.476562 337.707031 517.324219 337.660156 C 516.921875 337.53125 516.617188 337.199219 516.273438 336.953125 C 514.539062 335.710938 512.929688 334.351562 511.335938 333.007812 C 491.628906 316.363281 480.09375 295.332031 476.148438 272.671875 C 471.832031 247.84375 476.640625 221.0625 489.820312 195.976562 C 492.660156 190.609375 495.78125 185.480469 499.304688 180.652344 C 502.835938 175.816406 506.769531 171.28125 511.171875 167.074219 C 513.433594 164.914062 515.75 162.890625 518.238281 161.082031 C 519.894531 159.878906 521.632812 158.792969 523.40625 157.722656 C 523.429688 157.710938 523.476562 157.714844 523.496094 157.703125 Z M 523.496094 157.703125 " fill-opacity="1" fill-rule="evenodd"/></g></g></g></g><g clip-path="url(#ffa1186818)"><g clip-path="url(#b91787db71)"><g clip-path="url(#261b45f880)"><g clip-path="url(#30913fd416)"><path fill="#010101" d="M 495.277344 170.847656 C 495.464844 170.695312 495.738281 170.726562 495.886719 170.914062 C 496.035156 171.101562 496.003906 171.378906 495.816406 171.527344 C 494.882812 172.308594 494.03125 173.273438 493.207031 174.3125 C 491.296875 176.714844 489.597656 179.550781 487.972656 181.789062 C 480.871094 191.410156 475.699219 201.546875 472.03125 212.210938 C 468.355469 222.902344 466.1875 234.128906 465.28125 245.960938 C 465.257812 246.242188 465.015625 246.453125 464.738281 246.433594 C 464.457031 246.414062 464.246094 246.171875 464.269531 245.890625 C 465.082031 233.949219 467.117188 222.585938 470.792969 211.789062 C 474.46875 200.992188 479.78125 190.773438 486.984375 181.054688 C 488.414062 179.144531 489.875 176.765625 491.53125 174.65625 C 492.683594 173.191406 493.933594 171.859375 495.277344 170.847656 Z M 495.277344 170.847656 " fill-opacity="1" fill-rule="evenodd"/></g></g></g></g><g clip-path="url(#bb2b435cf3)"><g clip-path="url(#a939ea201e)"><g clip-path="url(#924795b2cd)"><g clip-path="url(#a1d0b4b877)"><path fill="#010101" d="M 508.605469 189.988281 C 508.617188 189.984375 508.628906 189.984375 508.636719 189.992188 C 508.683594 190.023438 508.621094 190.027344 508.5625 190.027344 C 508.574219 190.011719 508.585938 190 508.59375 189.992188 C 508.570312 190.007812 508.542969 190.019531 508.511719 190.027344 C 508.511719 190.03125 508.511719 190.03125 508.511719 190.03125 C 508.523438 190.027344 508.542969 190.027344 508.5625 190.023438 C 508.5 190.109375 508.425781 190.300781 508.308594 190.453125 C 507.308594 191.738281 504.679688 194.828125 504.476562 195.140625 C 503.308594 196.890625 502.214844 198.703125 501.191406 200.554688 C 500.164062 202.40625 499.210938 204.300781 498.324219 206.207031 C 495.496094 212.269531 493.621094 218.214844 492.371094 224.289062 C 491.480469 228.605469 490.972656 232.996094 490.539062 237.527344 C 490.359375 239.410156 490.15625 241.3125 490.007812 243.25 C 489.992188 243.554688 489.734375 243.792969 489.429688 243.777344 C 489.125 243.761719 488.890625 243.503906 488.90625 243.199219 C 488.945312 241.238281 488.988281 239.3125 489.121094 237.414062 C 489.445312 232.8125 490.109375 228.382812 491.027344 224.011719 C 492.328125 217.84375 494.265625 211.8125 497.164062 205.667969 C 498.074219 203.738281 499.050781 201.824219 500.097656 199.949219 C 501.148438 198.070312 502.265625 196.234375 503.460938 194.460938 C 503.675781 194.144531 506.3125 190.90625 507.507812 189.742188 C 507.738281 189.511719 507.917969 189.363281 508.015625 189.308594 C 508.539062 189.027344 508.800781 189.375 508.796875 189.484375 C 508.859375 189.679688 508.773438 189.886719 508.605469 189.988281 Z M 508.492188 190.035156 C 508.355469 190.070312 508.21875 190.039062 508.117188 189.960938 C 508.207031 190.085938 508.3125 190.171875 508.492188 190.035156 Z M 508.492188 190.035156 " fill-opacity="1" fill-rule="evenodd"/></g></g></g></g><g clip-path="url(#4e3ab9a8a4)"><g clip-path="url(#1e35d7551f)"><g clip-path="url(#4b237f0ef8)"><g clip-path="url(#1d0d3358af)"><path fill="#010101" d="M 465.050781 272.164062 C 464.964844 272.117188 464.898438 272.035156 464.863281 271.945312 C 464.90625 271.957031 464.964844 271.972656 465.023438 271.980469 C 465 271.882812 464.960938 271.824219 464.898438 271.835938 C 464.875 271.839844 464.855469 271.84375 464.835938 271.847656 C 464.832031 271.808594 464.832031 271.769531 464.839844 271.730469 C 464.851562 271.460938 464.984375 271.351562 465.019531 271.316406 C 465.164062 271.171875 465.332031 271.195312 465.5 271.253906 C 465.558594 271.277344 465.703125 271.378906 465.78125 271.628906 C 465.875 271.9375 466 273.152344 466.09375 273.636719 L 466.792969 277.113281 C 467.160156 278.777344 467.59375 280.429688 468.070312 282.070312 C 468.550781 283.710938 469.070312 285.34375 469.621094 286.957031 C 470.957031 290.855469 472.484375 294.664062 474.105469 298.429688 C 476.546875 304.09375 479.214844 309.65625 481.914062 315.214844 C 482.035156 315.464844 481.933594 315.765625 481.683594 315.886719 C 481.4375 316.011719 481.136719 315.910156 481.015625 315.660156 C 478.253906 310.113281 475.5 304.570312 473.023438 298.898438 C 471.375 295.113281 469.855469 291.269531 468.511719 287.339844 C 467.957031 285.710938 467.425781 284.058594 466.949219 282.398438 C 466.472656 280.730469 466.046875 279.050781 465.683594 277.359375 L 465.015625 273.800781 C 464.984375 273.46875 465.085938 272.632812 465.050781 272.164062 Z M 464.863281 271.945312 C 464.761719 271.910156 464.726562 271.875 464.835938 271.847656 C 464.84375 271.882812 464.851562 271.914062 464.863281 271.945312 Z M 464.863281 271.945312 " fill-opacity="1" fill-rule="evenodd"/></g></g></g></g><g clip-path="url(#1786719373)"><g clip-path="url(#2de38c9b6b)"><g clip-path="url(#f6b694bd43)"><g clip-path="url(#f72db98729)"><path fill="#010101" d="M 486.675781 274.4375 C 486.675781 274.4375 486.675781 274.441406 486.671875 274.441406 C 486.632812 274.457031 486.652344 274.515625 486.691406 274.578125 C 486.6875 274.617188 486.679688 274.65625 486.667969 274.691406 C 486.683594 274.664062 486.699219 274.636719 486.710938 274.613281 C 486.777344 274.707031 486.867188 274.804688 486.871094 274.816406 L 488.375 279.226562 C 489.300781 282.296875 490.324219 285.425781 491.585938 288.433594 C 492.421875 290.429688 493.363281 292.375 494.480469 294.199219 C 494.621094 294.425781 494.550781 294.722656 494.324219 294.863281 C 494.101562 295.003906 493.800781 294.9375 493.664062 294.710938 C 492.199219 292.402344 490.996094 289.90625 489.980469 287.324219 C 488.96875 284.761719 488.148438 282.121094 487.375 279.53125 L 486.066406 275.1875 C 486.058594 275.167969 485.90625 274.875 485.863281 274.753906 C 485.753906 274.445312 485.941406 274.246094 485.996094 274.203125 C 486.1875 274.058594 486.457031 274.09375 486.605469 274.285156 C 486.636719 274.332031 486.664062 274.382812 486.675781 274.4375 Z M 486.675781 274.4375 C 486.800781 274.390625 486.773438 274.492188 486.710938 274.613281 C 486.703125 274.601562 486.695312 274.589844 486.6875 274.578125 C 486.691406 274.53125 486.691406 274.484375 486.675781 274.4375 Z M 486.675781 274.4375 " fill-opacity="1" fill-rule="evenodd"/></g></g></g></g></svg>