<svg width="1836" height="565" viewBox="0 0 1836 565" fill="none" xmlns="http://www.w3.org/2000/svg">
<path d="M103.091 277.549V357.028H262.591V436.007H103.091V559.882H0.882568V198.569H284.258V277.549H103.091Z" fill="black"/>
<path d="M431.362 275.465C477.805 275.465 513.242 286.049 537.674 307.215C562.117 328.382 574.341 360.814 574.341 404.507V559.882H482.966V523.757C468.851 550.939 441.325 564.528 400.383 564.528C378.7 564.528 359.945 560.741 344.112 553.174C328.289 545.606 316.331 535.371 308.237 522.465C300.153 509.564 296.112 494.851 296.112 478.319C296.112 451.835 306.263 431.278 326.57 416.653C346.872 402.028 378.185 394.715 420.508 394.715H476.258C474.534 365.121 454.747 350.319 416.903 350.319C403.487 350.319 389.893 352.476 376.133 356.778C362.367 361.069 350.664 367.002 341.028 374.569L307.987 307.986C323.471 297.668 342.31 289.668 364.508 283.986C386.7 278.309 408.987 275.465 431.362 275.465ZM427.737 502.59C439.096 502.59 449.075 499.84 457.674 494.34C466.284 488.83 472.476 480.736 476.258 470.069V445.819H433.924C405.367 445.819 391.091 455.278 391.091 474.194C391.091 482.809 394.362 489.694 400.903 494.861C407.445 500.017 416.388 502.59 427.737 502.59Z" fill="url(#paint0_linear_17_306)"/>
<path d="M620.775 280.111H718.858V559.882H620.775V280.111ZM669.816 249.153C651.926 249.153 637.473 244.168 626.462 234.194C615.447 224.21 609.941 211.814 609.941 197.007C609.941 182.215 615.447 169.835 626.462 159.861C637.473 149.877 651.926 144.882 669.816 144.882C687.717 144.882 702.171 149.622 713.171 159.09C724.181 168.549 729.691 180.674 729.691 195.465C729.691 210.955 724.181 223.773 713.171 233.924C702.171 244.08 687.717 249.153 669.816 249.153Z" fill="url(#paint1_linear_17_306)"/>
<path d="M766.846 176.882H864.93V559.882H766.846V176.882Z" fill="black"/>
<path d="M1198.88 420.507C1198.88 421.205 1198.36 429.293 1197.34 444.778H993.961C998.086 459.236 1006.09 470.335 1017.96 478.069C1029.84 485.809 1044.72 489.674 1062.61 489.674C1076.03 489.674 1087.65 487.788 1097.46 484.007C1107.26 480.215 1117.15 474.023 1127.13 465.424L1178.75 519.111C1151.57 549.392 1111.83 564.528 1059.52 564.528C1026.83 564.528 998.091 558.335 973.315 545.944C948.534 533.559 929.346 516.356 915.752 494.34C902.169 472.314 895.377 447.361 895.377 419.486C895.377 391.96 902.002 367.273 915.252 345.424C928.502 323.564 946.82 306.439 970.211 294.049C993.612 281.663 1019.94 275.465 1049.19 275.465C1077.06 275.465 1102.36 281.231 1125.06 292.757C1147.77 304.288 1165.75 320.981 1179 342.84C1192.25 364.689 1198.88 390.58 1198.88 420.507ZM1049.71 345.153C1034.57 345.153 1021.92 349.46 1011.77 358.069C1001.62 366.668 995.169 378.361 992.419 393.153H1107C1104.25 378.361 1097.8 366.668 1087.65 358.069C1077.49 349.46 1064.85 345.153 1049.71 345.153Z" fill="black"/>
<path d="M1348.06 275.465C1394.5 275.465 1429.94 286.049 1454.37 307.215C1478.81 328.382 1491.04 360.814 1491.04 404.507V559.882H1399.66V523.757C1385.55 550.939 1358.02 564.528 1317.08 564.528C1295.4 564.528 1276.64 560.741 1260.81 553.174C1244.99 545.606 1233.03 535.371 1224.93 522.465C1216.85 509.564 1212.81 494.851 1212.81 478.319C1212.81 451.835 1222.96 431.278 1243.27 416.653C1263.57 402.028 1294.88 394.715 1337.2 394.715H1392.95C1391.23 365.121 1371.44 350.319 1333.6 350.319C1320.18 350.319 1306.59 352.476 1292.83 356.778C1279.06 361.069 1267.36 367.002 1257.73 374.569L1224.68 307.986C1240.17 297.668 1259.01 289.668 1281.2 283.986C1303.4 278.309 1325.68 275.465 1348.06 275.465ZM1344.43 502.59C1355.79 502.59 1365.77 499.84 1374.37 494.34C1382.98 488.83 1389.17 480.736 1392.95 470.069V445.819H1350.62C1322.06 445.819 1307.79 455.278 1307.79 474.194C1307.79 482.809 1311.06 489.694 1317.6 494.861C1324.14 500.017 1333.08 502.59 1344.43 502.59Z" fill="black"/>
<path d="M1719.68 275.465C1754.44 275.465 1782.4 285.793 1803.55 306.444C1824.72 327.101 1835.3 358.236 1835.3 399.861V559.882H1737.24V415.861C1737.24 377.668 1721.93 358.569 1691.3 358.569C1674.44 358.569 1660.93 364.08 1650.78 375.09C1640.63 386.106 1635.55 402.627 1635.55 424.653V559.882H1537.47V280.111H1630.91V310.569C1641.92 299.226 1655 290.538 1670.14 284.507C1685.27 278.481 1701.79 275.465 1719.68 275.465Z" fill="black"/>
<defs>
<linearGradient id="paint0_linear_17_306" x1="435.226" y1="275.465" x2="435.226" y2="564.528" gradientUnits="userSpaceOnUse">
<stop offset="0.140625" stop-color="#8A307F"/>
<stop offset="1" stop-color="#AF3EA1"/>
</linearGradient>
<linearGradient id="paint1_linear_17_306" x1="669.816" y1="144.882" x2="669.816" y2="559.882" gradientUnits="userSpaceOnUse">
<stop offset="0.140625" stop-color="#8A307F"/>
<stop offset="1" stop-color="#AF3EA1"/>
</linearGradient>
</defs>
</svg>
