<svg width="1835" height="565" viewBox="0 0 1835 565" fill="none" xmlns="http://www.w3.org/2000/svg">
<path d="M102.208 277.549V357.028H261.708V436.007H102.208V559.882H0V198.569H283.375V277.549H102.208Z" fill="white"/>
<path d="M430.479 275.465C476.922 275.465 512.359 286.049 536.792 307.215C561.234 328.382 573.458 360.814 573.458 404.507V559.882H482.083V523.757C467.969 550.939 440.443 564.528 399.5 564.528C377.818 564.528 359.063 560.741 343.229 553.174C327.406 545.606 315.448 535.371 307.354 522.465C299.271 509.564 295.229 494.851 295.229 478.319C295.229 451.835 305.38 431.278 325.688 416.653C345.99 402.028 377.302 394.715 419.625 394.715H475.375C473.651 365.121 453.865 350.319 416.021 350.319C402.604 350.319 389.01 352.476 375.25 356.778C361.484 361.069 349.781 367.002 340.146 374.569L307.104 307.986C322.589 297.668 341.427 289.668 363.625 283.986C385.818 278.309 408.104 275.465 430.479 275.465ZM426.854 502.59C438.214 502.59 448.193 499.84 456.792 494.34C465.401 488.83 471.594 480.736 475.375 470.069V445.819H433.042C404.484 445.819 390.208 455.278 390.208 474.194C390.208 482.809 393.479 489.694 400.021 494.861C406.563 500.017 415.505 502.59 426.854 502.59Z" fill="url(#paint0_linear_17_307)"/>
<path d="M619.892 280.111H717.976V559.882H619.892V280.111ZM668.934 249.153C651.043 249.153 636.59 244.168 625.58 234.194C614.564 224.21 609.059 211.814 609.059 197.007C609.059 182.215 614.564 169.835 625.58 159.861C636.59 149.877 651.043 144.882 668.934 144.882C686.835 144.882 701.288 149.622 712.288 159.09C723.298 168.549 728.809 180.674 728.809 195.465C728.809 210.955 723.298 223.773 712.288 233.924C701.288 244.08 686.835 249.153 668.934 249.153Z" fill="url(#paint1_linear_17_307)"/>
<path d="M765.964 176.882H864.047V559.882H765.964V176.882Z" fill="white"/>
<path d="M1197.99 420.507C1197.99 421.205 1197.48 429.293 1196.45 444.778H993.078C997.203 459.236 1005.2 470.335 1017.08 478.069C1028.95 485.809 1043.83 489.674 1061.72 489.674C1075.15 489.674 1086.77 487.788 1096.58 484.007C1106.38 480.215 1116.27 474.023 1126.24 465.424L1177.87 519.111C1150.69 549.392 1110.94 564.528 1058.64 564.528C1025.94 564.528 997.208 558.335 972.432 545.944C947.651 533.559 928.464 516.356 914.87 494.34C901.287 472.314 894.495 447.361 894.495 419.486C894.495 391.96 901.12 367.273 914.37 345.424C927.62 323.564 945.938 306.439 969.328 294.049C992.729 281.663 1019.06 275.465 1048.31 275.465C1076.18 275.465 1101.47 281.231 1124.18 292.757C1146.89 304.288 1164.87 320.981 1178.12 342.84C1191.37 364.689 1197.99 390.58 1197.99 420.507ZM1048.83 345.153C1033.69 345.153 1021.04 349.46 1010.89 358.069C1000.73 366.668 994.287 378.361 991.537 393.153H1106.12C1103.37 378.361 1096.92 366.668 1086.77 358.069C1076.61 349.46 1063.96 345.153 1048.83 345.153Z" fill="white"/>
<path d="M1347.18 275.465C1393.62 275.465 1429.06 286.049 1453.49 307.215C1477.93 328.382 1490.15 360.814 1490.15 404.507V559.882H1398.78V523.757C1384.67 550.939 1357.14 564.528 1316.2 564.528C1294.51 564.528 1275.76 560.741 1259.93 553.174C1244.1 545.606 1232.14 535.371 1224.05 522.465C1215.97 509.564 1211.93 494.851 1211.93 478.319C1211.93 451.835 1222.08 431.278 1242.38 416.653C1262.69 402.028 1294 394.715 1336.32 394.715H1392.07C1390.35 365.121 1370.56 350.319 1332.72 350.319C1319.3 350.319 1305.71 352.476 1291.95 356.778C1278.18 361.069 1266.48 367.002 1256.84 374.569L1223.8 307.986C1239.29 297.668 1258.12 289.668 1280.32 283.986C1302.51 278.309 1324.8 275.465 1347.18 275.465ZM1343.55 502.59C1354.91 502.59 1364.89 499.84 1373.49 494.34C1382.1 488.83 1388.29 480.736 1392.07 470.069V445.819H1349.74C1321.18 445.819 1306.9 455.278 1306.9 474.194C1306.9 482.809 1310.18 489.694 1316.72 494.861C1323.26 500.017 1332.2 502.59 1343.55 502.59Z" fill="white"/>
<path d="M1718.8 275.465C1753.56 275.465 1781.52 285.793 1802.67 306.444C1823.84 327.101 1834.42 358.236 1834.42 399.861V559.882H1736.36V415.861C1736.36 377.668 1721.05 358.569 1690.42 358.569C1673.56 358.569 1660.05 364.08 1649.9 375.09C1639.74 386.106 1634.67 402.627 1634.67 424.653V559.882H1536.59V280.111H1630.03V310.569C1641.04 299.226 1654.11 290.538 1669.26 284.507C1684.39 278.481 1700.91 275.465 1718.8 275.465Z" fill="white"/>
<mask id="mask0_17_307" style="mask-type:luminance" maskUnits="userSpaceOnUse" x="602" y="0" width="125" height="71">
<path d="M602.117 0H726.117V70.6667H602.117V0Z" fill="white"/>
</mask>
<g mask="url(#mask0_17_307)">
<mask id="mask1_17_307" style="mask-type:luminance" maskUnits="userSpaceOnUse" x="458" y="-49" width="314" height="349">
<path d="M644.945 -48.7136L771.836 43.7448L585.748 299.141L458.857 206.687L644.945 -48.7136Z" fill="white"/>
</mask>
<g mask="url(#mask1_17_307)">
<mask id="mask2_17_307" style="mask-type:luminance" maskUnits="userSpaceOnUse" x="458" y="-49" width="314" height="349">
<path d="M644.945 -48.7136L771.836 43.7448L585.748 299.141L458.857 206.687L644.945 -48.7136Z" fill="white"/>
</mask>
<g mask="url(#mask2_17_307)">
<mask id="mask3_17_307" style="mask-type:luminance" maskUnits="userSpaceOnUse" x="458" y="-49" width="314" height="349">
<path d="M644.945 -48.7136L771.836 43.7448L585.748 299.141L458.857 206.687L644.945 -48.7136Z" fill="white"/>
</mask>
<g mask="url(#mask3_17_307)">
<path fill-rule="evenodd" clip-rule="evenodd" d="M724.331 9.25516C723.498 8.87496 722.867 8.56766 722.706 8.48954C720.456 7.43225 718.149 6.48954 715.8 5.66141C713.456 4.8385 711.065 4.14058 708.664 3.51558C698.727 0.999954 688.706 0.604121 678.841 1.84891C671.779 2.73954 664.805 4.47912 657.992 6.79162C656.925 6.63537 655.503 6.48433 653.805 6.276C647.727 5.50516 638.154 4.35412 628.612 2.94787C623.992 2.27079 619.378 1.58329 615.169 0.864538C612.789 0.453079 608.524 3.08329 605.815 5.64579C604.352 7.03121 603.362 8.38537 603.128 9.07808C602.774 10.1354 603.185 10.8437 603.696 11.25C607.591 14.3593 612.597 15.552 616.774 18.177C620.383 20.4479 623.539 23.5208 626.102 26.9166C635.003 38.7447 634.925 53.2708 629.149 66.4062C628.919 66.9218 628.831 67.6979 629.805 68.2291C630.034 68.3489 630.602 68.5208 631.425 68.651C634.024 69.0729 639.914 69.552 642.477 69.6979C643.055 69.7291 643.477 69.7448 643.68 69.7395C644.732 69.7291 645.076 68.9635 645.123 68.8645C645.55 67.9843 651.196 61.0104 660.935 53.4218C665.685 49.7239 671.544 46.1614 678.018 42.5156C678.185 42.4218 678.352 42.3333 678.518 42.2395C686.024 39.8177 693.248 36.5572 699.977 32.4791C707.972 27.526 714.451 22.5156 718.873 18.5416C722.133 15.6093 724.352 13.3281 725.3 12.1406C725.362 12.0625 725.425 11.9895 725.477 11.9166C725.602 12.0052 724.763 9.45308 724.331 9.25516ZM620.508 16.7864C615.201 13.1302 609.513 10.9375 606.774 9.36454C607.925 7.97391 610.19 5.9635 612.279 4.80204C613.18 4.30204 613.998 3.901 614.649 4.00516C624.69 5.60933 637.013 7.18225 646.305 8.07808C648.727 8.30725 650.94 8.51037 652.852 8.64579C651.93 8.99995 651.013 9.35933 650.097 9.72912C647.274 10.8906 644.466 12.125 641.711 13.4791C638.946 14.8437 636.232 16.3177 633.623 17.9375L628.576 21.2135L626.951 22.3333C626.94 22.3385 626.935 22.3437 626.93 22.3489C626.883 22.2968 626.836 22.2395 626.784 22.1875C624.946 20.0677 622.737 18.3229 620.508 16.7864ZM634.196 34.4218C631.951 28.8385 629.55 26.0885 628.555 25.026C628.524 24.9218 628.487 24.8229 628.456 24.7291L630.201 23.8281L633.768 21.7447C635.128 23.5989 637.529 27.4687 639.294 32.4114C640.3 35.2135 641.06 38.3541 641.461 41.625C641.56 42.4218 641.607 43.2291 641.722 44.0312C641.737 44.1302 641.758 44.2291 641.774 44.3281C641.117 44.3229 640.456 44.3177 639.8 44.3125C638.935 44.302 638.06 44.1562 637.216 44.3281C637.044 44.3593 636.925 44.4218 636.794 44.4895C636.643 43.2864 636.487 42.151 636.253 41.0781C635.706 38.4947 634.946 36.2968 634.196 34.4218ZM658.914 50.7968C649.998 57.5364 644.602 64.2395 642.914 66.677C642.81 66.6875 642.701 66.6979 642.591 66.6927C640.222 66.6406 634.919 66.3906 632.222 66.052C633.638 62.651 634.956 58.5052 635.815 54.6562C636.388 52.0729 636.946 49.6197 636.831 47.6145C637.279 47.5156 637.753 47.3697 638.201 47.2187C638.685 47.2656 639.18 47.2708 639.664 47.3125C648.737 48.0572 657.925 47.1406 666.862 45.2968C663.961 47.0781 661.326 48.9739 658.914 50.7968ZM710.461 21.3333C706.946 23.9479 702.878 26.8333 698.248 29.6406C689.117 35.2239 679.044 39.2395 668.581 41.6614C660.607 43.5104 652.414 44.2239 644.227 44.3125C644.248 44.1927 644.263 44.0729 644.274 43.9531C644.341 43.0729 644.253 42.1927 644.164 41.3281C643.815 37.8229 642.821 34.4895 641.664 31.526C639.722 26.5677 637.206 22.625 635.571 20.6875C638.039 19.1822 640.597 17.8072 643.211 16.5416C645.899 15.2395 648.643 14.0468 651.404 12.9322C660.409 9.27079 669.779 6.55725 679.294 5.26558C688.763 3.97912 698.383 4.0937 707.977 6.3385C710.326 6.87495 712.654 7.50516 714.956 8.22391C717.253 8.93745 719.529 9.73433 721.748 10.6614C721.899 10.7239 722.388 10.9114 722.966 11.125C722.669 11.3906 722.326 11.6927 721.935 12.026C719.544 14.0312 715.68 17.4583 710.461 21.3333Z" fill="white"/>
</g>
</g>
</g>
</g>
<mask id="mask4_17_307" style="mask-type:luminance" maskUnits="userSpaceOnUse" x="671" y="10" width="22" height="21">
<path d="M671.451 10.6667H692.784V30.6667H671.451V10.6667Z" fill="white"/>
</mask>
<g mask="url(#mask4_17_307)">
<mask id="mask5_17_307" style="mask-type:luminance" maskUnits="userSpaceOnUse" x="458" y="-49" width="314" height="349">
<path d="M644.945 -48.7136L771.836 43.7448L585.748 299.141L458.857 206.687L644.945 -48.7136Z" fill="white"/>
</mask>
<g mask="url(#mask5_17_307)">
<mask id="mask6_17_307" style="mask-type:luminance" maskUnits="userSpaceOnUse" x="458" y="-49" width="314" height="349">
<path d="M644.945 -48.7136L771.836 43.7448L585.748 299.141L458.857 206.687L644.945 -48.7136Z" fill="white"/>
</mask>
<g mask="url(#mask6_17_307)">
<mask id="mask7_17_307" style="mask-type:luminance" maskUnits="userSpaceOnUse" x="458" y="-49" width="314" height="349">
<path d="M644.945 -48.7136L771.836 43.7448L585.748 299.141L458.857 206.687L644.945 -48.7136Z" fill="white"/>
</mask>
<g mask="url(#mask7_17_307)">
<path fill-rule="evenodd" clip-rule="evenodd" d="M691.018 16.8073C689.487 13.3021 685.789 11.3438 682.045 11.6198C677.753 11.9323 673.492 14.849 672.154 18.9792C671.321 21.5677 671.487 24.4115 673.076 26.6771C674.268 28.3906 676.102 29.4583 678.123 29.9219C680.045 30.3646 682.128 30.25 683.92 29.6615C685.565 29.125 687.201 28.1719 688.545 26.9427C691.362 24.349 692.591 20.4115 691.018 16.8073Z" fill="white"/>
</g>
</g>
</g>
</g>
<mask id="mask8_17_307" style="mask-type:luminance" maskUnits="userSpaceOnUse" x="535" y="38" width="92" height="261">
<path d="M535.451 38.6667H626.117V298.667H535.451V38.6667Z" fill="white"/>
</mask>
<g mask="url(#mask8_17_307)">
<mask id="mask9_17_307" style="mask-type:luminance" maskUnits="userSpaceOnUse" x="458" y="-49" width="314" height="349">
<path d="M644.945 -48.7136L771.836 43.7448L585.748 299.141L458.857 206.687L644.945 -48.7136Z" fill="white"/>
</mask>
<g mask="url(#mask9_17_307)">
<mask id="mask10_17_307" style="mask-type:luminance" maskUnits="userSpaceOnUse" x="458" y="-49" width="314" height="349">
<path d="M644.945 -48.7136L771.836 43.7448L585.748 299.141L458.857 206.687L644.945 -48.7136Z" fill="white"/>
</mask>
<g mask="url(#mask10_17_307)">
<mask id="mask11_17_307" style="mask-type:luminance" maskUnits="userSpaceOnUse" x="458" y="-49" width="314" height="349">
<path d="M644.945 -48.7136L771.836 43.7448L585.748 299.141L458.857 206.687L644.945 -48.7136Z" fill="white"/>
</mask>
<g mask="url(#mask11_17_307)">
<path fill-rule="evenodd" clip-rule="evenodd" d="M623.961 39.3906C623.961 39.3333 623.961 39.3072 623.972 39.3645C623.977 39.375 623.972 39.3854 623.961 39.3906ZM623.961 39.3906C623.961 39.4375 623.956 39.5104 623.946 39.5729C624.076 39.3281 624.357 39.1927 624.643 39.2552C624.982 39.3281 625.201 39.6666 625.123 40.0104C625.263 40.2343 625.055 40.276 624.972 40.5208C624.914 40.6822 624.68 40.7447 624.55 40.8333C620.623 42.9427 616.899 45.2395 613.242 47.6822C610.821 49.302 608.414 50.9635 606.076 52.7656C599.196 58.0677 592.961 63.927 587.201 70.2343C581.435 76.5364 576.149 83.2916 571.248 90.4479C548.279 123.766 536.914 160.932 538.857 196.927C540.628 229.719 553.446 261.536 578.602 288.568C580.643 290.76 582.821 292.865 584.966 295.047C585.388 295.479 585.935 295.833 586.211 296.375C586.321 296.578 586.274 296.698 586.321 296.927C586.67 297.255 586.69 297.807 586.362 298.156C586.029 298.51 585.477 298.526 585.128 298.198C584.899 298.167 584.779 298.214 584.565 298.12C584.003 297.865 583.617 297.333 583.164 296.917C580.867 294.823 578.768 292.573 576.69 290.354C551.008 262.875 537.878 230.49 536.013 197.083C533.972 160.479 545.461 122.656 568.774 88.7447C573.789 81.5 579.17 74.6406 585.086 68.2864C591.013 61.9218 597.466 56.0677 604.55 50.7656C608.185 48.0416 611.883 45.526 615.784 43.3489C618.388 41.9062 621.081 40.6406 623.831 39.4062C623.867 39.3958 623.935 39.4062 623.961 39.3906Z" fill="white"/>
</g>
</g>
</g>
</g>
<mask id="mask12_17_307" style="mask-type:luminance" maskUnits="userSpaceOnUse" x="522" y="52" width="61" height="106">
<path d="M522.117 52H582.117V157.333H522.117V52Z" fill="white"/>
</mask>
<g mask="url(#mask12_17_307)">
<mask id="mask13_17_307" style="mask-type:luminance" maskUnits="userSpaceOnUse" x="458" y="-49" width="314" height="349">
<path d="M644.945 -48.7136L771.836 43.7448L585.748 299.141L458.857 206.687L644.945 -48.7136Z" fill="white"/>
</mask>
<g mask="url(#mask13_17_307)">
<mask id="mask14_17_307" style="mask-type:luminance" maskUnits="userSpaceOnUse" x="458" y="-49" width="314" height="349">
<path d="M644.945 -48.7136L771.836 43.7448L585.748 299.141L458.857 206.687L644.945 -48.7136Z" fill="white"/>
</mask>
<g mask="url(#mask14_17_307)">
<mask id="mask15_17_307" style="mask-type:luminance" maskUnits="userSpaceOnUse" x="458" y="-49" width="314" height="349">
<path d="M644.945 -48.7136L771.836 43.7448L585.748 299.141L458.857 206.687L644.945 -48.7136Z" fill="white"/>
</mask>
<g mask="url(#mask15_17_307)">
<path fill-rule="evenodd" clip-rule="evenodd" d="M580.92 53.4271C581.216 53.2396 581.607 53.3333 581.789 53.6302C581.972 53.9271 581.883 54.3177 581.586 54.5C580.107 55.4635 578.706 56.7083 577.341 58.0625C574.17 61.1979 571.237 64.9948 568.508 67.9427C556.602 80.5885 547.404 94.3177 540.295 109.073C533.17 123.865 528.133 139.693 524.815 156.62C524.737 157.021 524.347 157.281 523.951 157.203C523.55 157.125 523.284 156.74 523.362 156.339C526.565 139.24 531.43 123.187 538.576 108.245C545.722 93.3021 555.133 79.4791 567.201 66.7083C569.591 64.2031 572.102 61.026 574.862 58.2656C576.774 56.3541 578.805 54.651 580.92 53.4271Z" fill="white"/>
</g>
</g>
</g>
</g>
<mask id="mask16_17_307" style="mask-type:luminance" maskUnits="userSpaceOnUse" x="558" y="81" width="41" height="78">
<path d="M558.117 81.3333H598.117V158.667H558.117V81.3333Z" fill="white"/>
</mask>
<g mask="url(#mask16_17_307)">
<mask id="mask17_17_307" style="mask-type:luminance" maskUnits="userSpaceOnUse" x="458" y="-49" width="314" height="349">
<path d="M644.945 -48.7136L771.836 43.7448L585.748 299.141L458.857 206.687L644.945 -48.7136Z" fill="white"/>
</mask>
<g mask="url(#mask17_17_307)">
<mask id="mask18_17_307" style="mask-type:luminance" maskUnits="userSpaceOnUse" x="458" y="-49" width="314" height="349">
<path d="M644.945 -48.7136L771.836 43.7448L585.748 299.141L458.857 206.687L644.945 -48.7136Z" fill="white"/>
</mask>
<g mask="url(#mask18_17_307)">
<mask id="mask19_17_307" style="mask-type:luminance" maskUnits="userSpaceOnUse" x="458" y="-49" width="314" height="349">
<path d="M644.945 -48.7136L771.836 43.7448L585.748 299.141L458.857 206.687L644.945 -48.7136Z" fill="white"/>
</mask>
<g mask="url(#mask19_17_307)">
<path fill-rule="evenodd" clip-rule="evenodd" d="M596.961 83.3958C596.977 83.3906 596.992 83.3958 597.008 83.4062C597.065 83.4583 596.972 83.4531 596.893 83.4427C596.909 83.4218 596.925 83.4114 596.94 83.401C596.904 83.4166 596.862 83.4322 596.815 83.4375C596.831 83.4375 596.862 83.4375 596.893 83.4427C596.789 83.552 596.649 83.8177 596.451 84.0156C594.789 85.6927 590.461 89.6927 590.112 90.1093C588.128 92.4322 586.237 94.8593 584.446 97.3489C582.649 99.8437 580.946 102.411 579.341 105.01C574.227 113.266 570.503 121.521 567.67 130.073C565.649 136.151 564.175 142.401 562.779 148.865C562.196 151.547 561.581 154.26 561.039 157.036C560.966 157.474 560.555 157.766 560.112 157.693C559.675 157.62 559.383 157.203 559.456 156.766C559.847 153.943 560.232 151.172 560.748 148.453C561.992 141.87 563.706 135.583 565.774 129.437C568.696 120.76 572.518 112.391 577.758 104.026C579.399 101.401 581.138 98.8072 582.966 96.2864C584.805 93.7552 586.732 91.302 588.758 88.9531C589.128 88.5364 593.487 84.3177 595.414 82.8437C595.789 82.5572 596.071 82.3697 596.222 82.3125C597.029 82 597.347 82.5468 597.321 82.6979C597.378 82.9947 597.222 83.2812 596.961 83.3958ZM596.789 83.4427C596.586 83.4739 596.388 83.401 596.258 83.2656C596.367 83.4687 596.503 83.6041 596.789 83.4427Z" fill="white"/>
</g>
</g>
</g>
</g>
<mask id="mask20_17_307" style="mask-type:luminance" maskUnits="userSpaceOnUse" x="519" y="192" width="20" height="70">
<path d="M519.451 192H538.117V261.333H519.451V192Z" fill="white"/>
</mask>
<g mask="url(#mask20_17_307)">
<mask id="mask21_17_307" style="mask-type:luminance" maskUnits="userSpaceOnUse" x="458" y="-49" width="314" height="349">
<path d="M644.945 -48.7136L771.836 43.7448L585.748 299.141L458.857 206.687L644.945 -48.7136Z" fill="white"/>
</mask>
<g mask="url(#mask21_17_307)">
<mask id="mask22_17_307" style="mask-type:luminance" maskUnits="userSpaceOnUse" x="458" y="-49" width="314" height="349">
<path d="M644.945 -48.7136L771.836 43.7448L585.748 299.141L458.857 206.687L644.945 -48.7136Z" fill="white"/>
</mask>
<g mask="url(#mask22_17_307)">
<mask id="mask23_17_307" style="mask-type:luminance" maskUnits="userSpaceOnUse" x="458" y="-49" width="314" height="349">
<path d="M644.945 -48.7136L771.836 43.7448L585.748 299.141L458.857 206.687L644.945 -48.7136Z" fill="white"/>
</mask>
<g mask="url(#mask23_17_307)">
<path fill-rule="evenodd" clip-rule="evenodd" d="M520.045 194.406C519.93 194.323 519.847 194.193 519.81 194.057C519.873 194.083 519.951 194.115 520.039 194.141C520.024 193.99 519.972 193.901 519.878 193.906C519.847 193.906 519.815 193.906 519.789 193.911C519.789 193.854 519.8 193.797 519.815 193.74C519.878 193.354 520.086 193.224 520.143 193.177C520.378 192.995 520.617 193.057 520.847 193.172C520.93 193.214 521.123 193.385 521.19 193.76C521.274 194.224 521.253 196 521.305 196.719L521.727 201.859C521.977 204.323 522.326 206.786 522.737 209.24C523.149 211.693 523.628 214.141 524.154 216.568C525.425 222.427 526.987 228.193 528.696 233.911C531.268 242.516 534.185 251.016 537.149 259.516C537.279 259.896 537.081 260.312 536.701 260.448C536.321 260.578 535.909 260.38 535.774 260C532.722 251.505 529.67 243.021 527.055 234.401C525.305 228.646 523.763 222.828 522.487 216.927C521.956 214.469 521.466 211.995 521.06 209.516C520.654 207.026 520.321 204.526 520.086 202.021L519.722 196.76C519.732 196.276 520.018 195.089 520.045 194.406ZM519.81 194.057C519.67 193.99 519.623 193.932 519.789 193.911C519.795 193.958 519.8 194.01 519.81 194.057Z" fill="white"/>
</g>
</g>
</g>
</g>
<mask id="mask24_17_307" style="mask-type:luminance" maskUnits="userSpaceOnUse" x="548" y="200" width="12" height="34">
<path d="M548.784 200H559.451V233.333H548.784V200Z" fill="white"/>
</mask>
<g mask="url(#mask24_17_307)">
<mask id="mask25_17_307" style="mask-type:luminance" maskUnits="userSpaceOnUse" x="458" y="-49" width="314" height="349">
<path d="M644.945 -48.7136L771.836 43.7448L585.748 299.141L458.857 206.687L644.945 -48.7136Z" fill="white"/>
</mask>
<g mask="url(#mask25_17_307)">
<mask id="mask26_17_307" style="mask-type:luminance" maskUnits="userSpaceOnUse" x="458" y="-49" width="314" height="349">
<path d="M644.945 -48.7136L771.836 43.7448L585.748 299.141L458.857 206.687L644.945 -48.7136Z" fill="white"/>
</mask>
<g mask="url(#mask26_17_307)">
<mask id="mask27_17_307" style="mask-type:luminance" maskUnits="userSpaceOnUse" x="458" y="-49" width="314" height="349">
<path d="M644.945 -48.7136L771.836 43.7448L585.748 299.141L458.857 206.687L644.945 -48.7136Z" fill="white"/>
</mask>
<g mask="url(#mask27_17_307)">
<path fill-rule="evenodd" clip-rule="evenodd" d="M550.94 201.479C550.94 201.479 550.94 201.479 550.935 201.479C550.873 201.5 550.894 201.583 550.935 201.682C550.925 201.74 550.909 201.792 550.883 201.839C550.914 201.807 550.94 201.771 550.961 201.734C551.039 201.885 551.154 202.042 551.159 202.057L552.586 208.688C553.404 213.281 554.352 217.979 555.67 222.542C556.545 225.573 557.576 228.542 558.883 231.375C559.045 231.724 558.894 232.141 558.545 232.307C558.196 232.469 557.779 232.318 557.612 231.969C555.888 228.375 554.571 224.562 553.539 220.661C552.508 216.786 551.769 212.828 551.091 208.953L549.935 202.453C549.925 202.422 549.753 201.974 549.711 201.786C549.602 201.328 549.909 201.073 549.998 201.021C550.295 200.844 550.685 200.943 550.862 201.24C550.904 201.318 550.93 201.396 550.94 201.479ZM550.94 201.479C551.128 201.432 551.071 201.573 550.961 201.734C550.951 201.719 550.946 201.698 550.935 201.682C550.946 201.615 550.951 201.547 550.94 201.479Z" fill="white"/>
</g>
</g>
</g>
</g>
<defs>
<linearGradient id="paint0_linear_17_307" x1="434.344" y1="275.465" x2="434.344" y2="564.528" gradientUnits="userSpaceOnUse">
<stop offset="0.140625" stop-color="#8A307F"/>
<stop offset="1" stop-color="#AF3EA1"/>
</linearGradient>
<linearGradient id="paint1_linear_17_307" x1="668.934" y1="144.882" x2="668.934" y2="559.882" gradientUnits="userSpaceOnUse">
<stop offset="0.140625" stop-color="#8A307F"/>
<stop offset="1" stop-color="#AF3EA1"/>
</linearGradient>
</defs>
</svg>
