<svg width="1835" height="565" viewBox="0 0 1835 565" fill="none" xmlns="http://www.w3.org/2000/svg">
<rect width="1834.42" height="564.528" transform="translate(0.117432)" fill="black"/>
<path d="M102.326 277.549V357.028H261.826V436.007H102.326V559.882H0.117432V198.569H283.492V277.549H102.326Z" fill="white"/>
<path d="M430.597 275.465C477.039 275.465 512.477 286.049 536.909 307.215C561.352 328.382 573.576 360.814 573.576 404.507V559.882H482.201V523.757C468.086 550.939 440.56 564.528 399.618 564.528C377.935 564.528 359.18 560.741 343.347 553.174C327.524 545.606 315.565 535.371 307.472 522.465C299.388 509.564 295.347 494.851 295.347 478.319C295.347 451.835 305.498 431.278 325.805 416.653C346.107 402.028 377.42 394.715 419.743 394.715H475.493C473.769 365.121 453.982 350.319 416.138 350.319C402.722 350.319 389.128 352.476 375.368 356.778C361.602 361.069 349.899 367.002 340.263 374.569L307.222 307.986C322.706 297.668 341.545 289.668 363.743 283.986C385.935 278.309 408.222 275.465 430.597 275.465ZM426.972 502.59C438.331 502.59 448.31 499.84 456.909 494.34C465.519 488.83 471.711 480.736 475.493 470.069V445.819H433.159C404.602 445.819 390.326 455.278 390.326 474.194C390.326 482.809 393.597 489.694 400.138 494.861C406.68 500.017 415.623 502.59 426.972 502.59Z" fill="url(#paint0_linear_19_150)"/>
<path d="M620.01 280.111H718.093V559.882H620.01V280.111ZM669.051 249.153C651.161 249.153 636.708 244.168 625.697 234.194C614.681 224.21 609.176 211.814 609.176 197.007C609.176 182.215 614.681 169.835 625.697 159.861C636.708 149.877 651.161 144.882 669.051 144.882C686.952 144.882 701.405 149.622 712.405 159.09C723.416 168.549 728.926 180.674 728.926 195.465C728.926 210.955 723.416 223.773 712.405 233.924C701.405 244.08 686.952 249.153 669.051 249.153Z" fill="url(#paint1_linear_19_150)"/>
<path d="M766.081 176.882H864.164V559.882H766.081V176.882Z" fill="white"/>
<path d="M1198.11 420.507C1198.11 421.205 1197.6 429.293 1196.57 444.778H993.196C997.321 459.236 1005.32 470.335 1017.2 478.069C1029.07 485.809 1043.95 489.674 1061.84 489.674C1075.27 489.674 1086.89 487.788 1096.7 484.007C1106.5 480.215 1116.39 474.023 1126.36 465.424L1177.99 519.111C1150.81 549.392 1111.06 564.528 1058.76 564.528C1026.06 564.528 997.326 558.335 972.55 545.944C947.769 533.559 928.581 516.356 914.987 494.34C901.404 472.314 894.612 447.361 894.612 419.486C894.612 391.96 901.237 367.273 914.487 345.424C927.737 323.564 946.055 306.439 969.446 294.049C992.847 281.663 1019.17 275.465 1048.42 275.465C1076.3 275.465 1101.59 281.231 1124.3 292.757C1147.01 304.288 1164.99 320.981 1178.24 342.84C1191.49 364.689 1198.11 390.58 1198.11 420.507ZM1048.95 345.153C1033.81 345.153 1021.16 349.46 1011.01 358.069C1000.85 366.668 994.404 378.361 991.654 393.153H1106.24C1103.49 378.361 1097.03 366.668 1086.88 358.069C1076.73 349.46 1064.08 345.153 1048.95 345.153Z" fill="white"/>
<path d="M1347.29 275.465C1393.74 275.465 1429.17 286.049 1453.61 307.215C1478.05 328.382 1490.27 360.814 1490.27 404.507V559.882H1398.9V523.757C1384.78 550.939 1357.26 564.528 1316.31 564.528C1294.63 564.528 1275.88 560.741 1260.04 553.174C1244.22 545.606 1232.26 535.371 1224.17 522.465C1216.08 509.564 1212.04 494.851 1212.04 478.319C1212.04 451.835 1222.19 431.278 1242.5 416.653C1262.8 402.028 1294.12 394.715 1336.44 394.715H1392.19C1390.47 365.121 1370.68 350.319 1332.83 350.319C1319.42 350.319 1305.82 352.476 1292.06 356.778C1278.3 361.069 1266.6 367.002 1256.96 374.569L1223.92 307.986C1239.4 297.668 1258.24 289.668 1280.44 283.986C1302.63 278.309 1324.92 275.465 1347.29 275.465ZM1343.67 502.59C1355.03 502.59 1365.01 499.84 1373.61 494.34C1382.22 488.83 1388.41 480.736 1392.19 470.069V445.819H1349.86C1321.3 445.819 1307.02 455.278 1307.02 474.194C1307.02 482.809 1310.29 489.694 1316.83 494.861C1323.38 500.017 1332.32 502.59 1343.67 502.59Z" fill="white"/>
<path d="M1718.91 275.465C1753.67 275.465 1781.63 285.793 1802.79 306.444C1823.96 327.101 1834.54 358.236 1834.54 399.861V559.882H1736.48V415.861C1736.48 377.668 1721.16 358.569 1690.54 358.569C1673.67 358.569 1660.17 364.08 1650.02 375.09C1639.86 386.106 1634.79 402.627 1634.79 424.653V559.882H1536.71V280.111H1630.14V310.569C1641.15 299.226 1654.23 290.538 1669.37 284.507C1684.51 278.481 1701.02 275.465 1718.91 275.465Z" fill="white"/>
<defs>
<linearGradient id="paint0_linear_19_150" x1="434.461" y1="275.465" x2="434.461" y2="564.528" gradientUnits="userSpaceOnUse">
<stop offset="0.140625" stop-color="#8A307F"/>
<stop offset="1" stop-color="#AF3EA1"/>
</linearGradient>
<linearGradient id="paint1_linear_19_150" x1="669.051" y1="144.882" x2="669.051" y2="559.882" gradientUnits="userSpaceOnUse">
<stop offset="0.140625" stop-color="#8A307F"/>
<stop offset="1" stop-color="#AF3EA1"/>
</linearGradient>
</defs>
</svg>
