<svg width="1835" height="565" viewBox="0 0 1835 565" fill="none" xmlns="http://www.w3.org/2000/svg">
<rect width="1834.42" height="564.528" fill="white"/>
<path d="M102.208 277.549V357.028H261.708V436.007H102.208V559.882H0V198.569H283.375V277.549H102.208Z" fill="black"/>
<path d="M430.479 275.465C476.922 275.465 512.359 286.049 536.792 307.215C561.234 328.382 573.458 360.814 573.458 404.507V559.882H482.083V523.757C467.969 550.939 440.443 564.528 399.5 564.528C377.818 564.528 359.063 560.741 343.229 553.174C327.406 545.606 315.448 535.371 307.354 522.465C299.271 509.564 295.229 494.851 295.229 478.319C295.229 451.835 305.38 431.278 325.688 416.653C345.99 402.028 377.302 394.715 419.625 394.715H475.375C473.651 365.121 453.865 350.319 416.021 350.319C402.604 350.319 389.01 352.476 375.25 356.778C361.484 361.069 349.781 367.002 340.146 374.569L307.104 307.986C322.589 297.668 341.427 289.668 363.625 283.986C385.818 278.309 408.104 275.465 430.479 275.465ZM426.854 502.59C438.214 502.59 448.193 499.84 456.792 494.34C465.401 488.83 471.594 480.736 475.375 470.069V445.819H433.042C404.484 445.819 390.208 455.278 390.208 474.194C390.208 482.809 393.479 489.694 400.021 494.861C406.563 500.017 415.505 502.59 426.854 502.59Z" fill="url(#paint0_linear_19_2)"/>
<path d="M619.892 280.111H717.976V559.882H619.892V280.111ZM668.934 249.153C651.043 249.153 636.59 244.168 625.58 234.194C614.564 224.21 609.059 211.814 609.059 197.007C609.059 182.215 614.564 169.835 625.58 159.861C636.59 149.877 651.043 144.882 668.934 144.882C686.835 144.882 701.288 149.622 712.288 159.09C723.298 168.549 728.809 180.674 728.809 195.465C728.809 210.955 723.298 223.773 712.288 233.924C701.288 244.08 686.835 249.153 668.934 249.153Z" fill="url(#paint1_linear_19_2)"/>
<path d="M765.964 176.882H864.047V559.882H765.964V176.882Z" fill="black"/>
<path d="M1197.99 420.507C1197.99 421.205 1197.48 429.293 1196.45 444.778H993.078C997.203 459.236 1005.2 470.335 1017.08 478.069C1028.95 485.809 1043.83 489.674 1061.72 489.674C1075.15 489.674 1086.77 487.788 1096.58 484.007C1106.38 480.215 1116.27 474.023 1126.24 465.424L1177.87 519.111C1150.69 549.392 1110.94 564.528 1058.64 564.528C1025.94 564.528 997.208 558.335 972.432 545.944C947.651 533.559 928.464 516.356 914.87 494.34C901.287 472.314 894.495 447.361 894.495 419.486C894.495 391.96 901.12 367.273 914.37 345.424C927.62 323.564 945.938 306.439 969.328 294.049C992.729 281.663 1019.06 275.465 1048.31 275.465C1076.18 275.465 1101.47 281.231 1124.18 292.757C1146.89 304.288 1164.87 320.981 1178.12 342.84C1191.37 364.689 1197.99 390.58 1197.99 420.507ZM1048.83 345.153C1033.69 345.153 1021.04 349.46 1010.89 358.069C1000.73 366.668 994.287 378.361 991.537 393.153H1106.12C1103.37 378.361 1096.92 366.668 1086.77 358.069C1076.61 349.46 1063.96 345.153 1048.83 345.153Z" fill="black"/>
<path d="M1347.18 275.465C1393.62 275.465 1429.06 286.049 1453.49 307.215C1477.93 328.382 1490.15 360.814 1490.15 404.507V559.882H1398.78V523.757C1384.67 550.939 1357.14 564.528 1316.2 564.528C1294.51 564.528 1275.76 560.741 1259.93 553.174C1244.1 545.606 1232.14 535.371 1224.05 522.465C1215.97 509.564 1211.93 494.851 1211.93 478.319C1211.93 451.835 1222.08 431.278 1242.38 416.653C1262.69 402.028 1294 394.715 1336.32 394.715H1392.07C1390.35 365.121 1370.56 350.319 1332.72 350.319C1319.3 350.319 1305.71 352.476 1291.95 356.778C1278.18 361.069 1266.48 367.002 1256.84 374.569L1223.8 307.986C1239.29 297.668 1258.12 289.668 1280.32 283.986C1302.51 278.309 1324.8 275.465 1347.18 275.465ZM1343.55 502.59C1354.91 502.59 1364.89 499.84 1373.49 494.34C1382.1 488.83 1388.29 480.736 1392.07 470.069V445.819H1349.74C1321.18 445.819 1306.9 455.278 1306.9 474.194C1306.9 482.809 1310.18 489.694 1316.72 494.861C1323.26 500.017 1332.2 502.59 1343.55 502.59Z" fill="black"/>
<path d="M1718.8 275.465C1753.56 275.465 1781.52 285.793 1802.67 306.444C1823.84 327.101 1834.42 358.236 1834.42 399.861V559.882H1736.36V415.861C1736.36 377.668 1721.05 358.569 1690.42 358.569C1673.56 358.569 1660.05 364.08 1649.9 375.09C1639.74 386.106 1634.67 402.627 1634.67 424.653V559.882H1536.59V280.111H1630.03V310.569C1641.04 299.226 1654.11 290.538 1669.26 284.507C1684.39 278.481 1700.91 275.465 1718.8 275.465Z" fill="black"/>
<defs>
<linearGradient id="paint0_linear_19_2" x1="434.344" y1="275.465" x2="434.344" y2="564.528" gradientUnits="userSpaceOnUse">
<stop offset="0.140625" stop-color="#8A307F"/>
<stop offset="1" stop-color="#AF3EA1"/>
</linearGradient>
<linearGradient id="paint1_linear_19_2" x1="668.934" y1="144.882" x2="668.934" y2="559.882" gradientUnits="userSpaceOnUse">
<stop offset="0.140625" stop-color="#8A307F"/>
<stop offset="1" stop-color="#AF3EA1"/>
</linearGradient>
</defs>
</svg>
